<?xml version="1.0" standalone="no"?>
<!DOCTYPE svg PUBLIC "-//W3C//DTD SVG 20010904//EN"
 "http://www.w3.org/TR/2001/REC-SVG-20010904/DTD/svg10.dtd">
<svg version="1.0" xmlns="http://www.w3.org/2000/svg"
 width="1280.000000pt" height="1280.000000pt" viewBox="0 0 1280.000000 1280.000000"
 preserveAspectRatio="xMidYMid meet">
<metadata>
Created by potrace 1.15, written by Peter Selinger 2001-2017
</metadata>
<g transform="translate(0.000000,1280.000000) scale(0.100000,-0.100000)"
fill="#000000" stroke="none">
<path d="M6985 12430 c-3 -6 7 -18 24 -28 17 -9 31 -20 31 -24 0 -10 -81 -50
-147 -73 -132 -47 -265 -206 -329 -395 -17 -50 -19 -78 -14 -290 3 -129 5
-320 5 -425 -1 -170 -3 -198 -24 -265 -43 -139 -115 -256 -151 -245 -12 4 -42
-14 -91 -55 -41 -33 -92 -69 -114 -79 -175 -86 -245 -123 -295 -160 -79 -58
-282 -267 -359 -371 -75 -100 -158 -188 -221 -235 -25 -18 -112 -70 -195 -115
-82 -45 -188 -104 -233 -131 -118 -70 -245 -132 -364 -180 -121 -48 -193 -86
-268 -144 -74 -57 -206 -197 -252 -266 -36 -54 -150 -276 -181 -351 l-16 -37
-79 6 -79 6 -43 -39 c-49 -44 -98 -141 -198 -389 -126 -314 -172 -544 -172
-856 0 -275 63 -467 192 -586 59 -54 79 -64 239 -116 74 -25 188 -70 254 -100
174 -80 222 -91 390 -90 230 1 405 33 511 94 l56 32 -7 -34 c-37 -165 39 -540
129 -637 11 -13 22 -38 22 -55 1 -18 5 -68 9 -113 7 -78 7 -83 -28 -160 -35
-80 -49 -135 -87 -364 -23 -136 -51 -263 -104 -465 -108 -416 -127 -461 -291
-700 -178 -260 -237 -351 -290 -456 -107 -209 -237 -579 -336 -954 -10 -38
-25 -97 -34 -130 -31 -119 -115 -498 -115 -522 0 -2 -11 -3 -26 -3 -31 0 -50
-41 -70 -150 -7 -41 -20 -94 -28 -118 -16 -44 -96 -208 -139 -284 -13 -24 -36
-72 -51 -108 -26 -65 -118 -388 -120 -424 -1 -14 32 -42 119 -101 109 -74 130
-84 238 -115 100 -28 121 -31 141 -21 20 11 29 10 63 -12 106 -67 295 -144
429 -174 66 -15 126 -18 364 -18 312 1 489 15 590 47 75 24 75 24 84 61 5 23
2 29 -19 39 -21 9 -25 18 -25 52 0 52 -18 87 -53 104 -16 8 -82 24 -147 37
-65 13 -148 38 -185 54 -182 83 -346 262 -412 453 -23 66 -25 87 -25 219 1
164 26 304 61 348 66 82 104 202 125 391 19 168 38 225 158 465 52 105 126
258 164 340 116 255 122 264 180 284 220 74 446 393 704 991 32 74 80 182 107
240 27 58 56 120 64 138 7 17 17 32 21 32 13 0 223 -329 302 -472 57 -105 282
-588 310 -667 30 -84 86 -295 86 -326 0 -27 83 -351 114 -446 60 -184 160
-408 262 -590 41 -74 77 -123 127 -171 52 -51 67 -73 62 -87 -3 -12 4 -33 19
-56 14 -20 28 -56 32 -81 3 -25 22 -69 44 -103 20 -31 43 -74 50 -95 7 -21 25
-53 42 -71 27 -32 28 -35 14 -57 -15 -23 -14 -27 25 -78 43 -58 91 -148 127
-240 23 -60 106 -386 117 -461 9 -59 14 -66 49 -71 25 -3 31 -9 43 -50 16 -57
61 -98 107 -98 51 0 132 28 246 85 110 55 269 124 331 144 20 7 39 20 42 30 3
14 18 19 63 24 95 10 172 34 279 86 108 52 568 346 625 400 19 18 50 44 68 59
19 14 59 57 89 96 l55 71 -37 16 c-20 9 -50 31 -67 49 -28 31 -31 32 -86 27
-31 -4 -84 -14 -117 -22 -107 -29 -257 -45 -415 -45 -313 0 -470 39 -620 155
-86 68 -146 134 -187 210 -38 69 -39 70 -83 73 -75 5 -79 10 -39 45 69 61 54
153 -31 198 -19 11 -46 19 -60 19 -21 0 -26 5 -25 27 0 24 -5 28 -41 35 -37 8
-43 13 -52 46 -5 20 -32 100 -60 177 -111 314 -215 634 -244 754 -28 113 -31
140 -30 271 0 80 -4 159 -9 177 -8 24 -7 39 6 62 25 49 35 124 25 183 -4 29
-43 146 -85 258 -210 555 -254 698 -305 976 -31 170 -114 485 -169 644 -28 80
-73 210 -100 290 -28 80 -51 156 -51 168 0 30 23 79 55 116 14 16 25 34 25 40
0 5 -19 49 -42 96 -43 85 -43 86 -41 185 1 55 -2 121 -8 146 -9 40 -7 56 14
120 45 133 87 378 87 500 l0 67 101 12 c125 15 341 8 464 -15 128 -24 290 -24
335 0 23 13 51 18 80 17 37 -3 54 3 95 29 31 20 60 32 77 30 36 -3 106 34 125
67 15 26 18 27 112 28 106 1 165 19 176 53 6 19 14 21 91 21 l84 0 0 68 0 68
-92 12 c-51 7 -183 17 -293 22 -314 15 -319 16 -294 61 8 16 5 29 -15 64 -30
51 -74 80 -142 96 -44 10 -64 8 -163 -15 -123 -29 -173 -50 -210 -90 l-24 -26
-239 0 -238 0 -19 38 c-19 38 -19 38 1 83 13 29 23 80 29 148 9 108 13 117 87
236 41 64 49 114 61 345 6 104 15 218 20 252 6 35 18 113 28 173 25 151 23
326 -6 480 -44 237 -51 318 -30 358 23 42 120 167 137 175 9 5 37 12 62 16 25
4 70 19 100 34 60 30 102 86 130 173 8 24 30 69 49 98 86 136 166 351 200 537
39 216 67 577 52 679 -20 136 -93 254 -227 369 -145 124 -260 167 -515 190
-197 19 -176 18 -184 6z"/>
</g>
</svg>
